# xmcd
#
# Track frame offsets: 
#        182
#        15930
#        27725
#        44972
#        57800
#        73435
#        93852
#        116955
#        139440
#        153257
#        170782
#
# Disc length: 2611 seconds
#
# Revision: 3
# Processed by: cddbd v1.5.2PL0 Copyright (c) Steve Scherf et al.
# Submitted via: ExactAudioCopy v1.0b3
#
DISCID=a60a310b
DTITLE=Aretha Franklin - Let Me in Your Life
DYEAR=1974
DGENRE=Soul
TTITLE0=Let Me in Your Life
TTITLE1=Every Natural Thing
TTITLE2=Ain't Nothing Like the Real Thing
TTITLE3=I'm in Love
TTITLE4=Until You Come Back to Me (That's What I'm Gonna Do)
TTITLE5=The Masquerade Is Over
TTITLE6=With Pen in Hand
TTITLE7=Oh Baby
TTITLE8=Eight Days on the Road
TTITLE9=If You Don't Think
TTITLE10=A Song for You
EXTD=YEAR: 1974
EXTT0=
EXTT1=
EXTT2=
EXTT3=
EXTT4=
EXTT5=
EXTT6=
EXTT7=
EXTT8=
EXTT9=
EXTT10=
PLAYORDER=
